<svg width="142" height="142" viewBox="0 0 142 142" fill="none" xmlns="http://www.w3.org/2000/svg">
<path fill-rule="evenodd" clip-rule="evenodd" d="M35.4838 31.0567C33.0374 31.0567 31.0542 33.0399 31.0542 35.4863V45.835H51.7517V35.4863C51.7517 33.0399 49.7685 31.0567 47.3221 31.0567H35.4838ZM28.0752 35.4863C28.0752 31.3946 31.3922 28.0776 35.4838 28.0776H47.3221C51.4138 28.0776 54.7307 31.3946 54.7307 35.4863V47.3245C54.7307 48.1472 54.0639 48.8141 53.2412 48.8141H29.5647C28.7421 48.8141 28.0752 48.1472 28.0752 47.3245V35.4863Z" fill="#D2DEEE"/>
<path fill-rule="evenodd" clip-rule="evenodd" d="M41.4055 16.2385C42.2282 16.2385 42.895 16.9054 42.895 17.728V29.5663C42.895 30.3889 42.2282 31.0558 41.4055 31.0558C40.5829 31.0558 39.916 30.3889 39.916 29.5663V17.728C39.916 16.9054 40.5829 16.2385 41.4055 16.2385Z" fill="#D2DEEE"/>
<path fill-rule="evenodd" clip-rule="evenodd" d="M23.645 48.814C21.1986 48.814 19.2153 50.7972 19.2153 53.2436V124.273C19.2153 125.096 18.5485 125.763 17.7258 125.763C16.9032 125.763 16.2363 125.096 16.2363 124.273V53.2436C16.2363 49.1519 19.5533 45.835 23.645 45.835H59.1598C63.2514 45.835 66.5684 49.1519 66.5684 53.2436V71.001C66.5684 71.8236 65.9015 72.4905 65.0789 72.4905C64.2563 72.4905 63.5894 71.8236 63.5894 71.001V53.2436C63.5894 50.7972 61.6062 48.814 59.1598 48.814H23.645Z" fill="#D2DEEE"/>
<path fill-rule="evenodd" clip-rule="evenodd" d="M90.3119 25.4203C88.9519 24.9105 87.4285 25.0999 86.2346 25.927C85.0408 26.7541 84.3283 28.1136 84.3277 29.5659C84.3277 29.566 84.3277 29.5658 84.3277 29.5659V70.9998C84.3277 71.8224 83.6608 72.4893 82.8381 72.4893C82.0155 72.4893 81.3486 71.8224 81.3486 70.9998V29.5659C81.3495 27.1367 82.5413 24.8617 84.5381 23.4782C86.5349 22.0948 89.083 21.7782 91.3577 22.6308L120.953 33.7292C123.847 34.8139 125.764 37.5808 125.762 40.6711V124.272C125.762 125.095 125.095 125.762 124.272 125.762C123.449 125.762 122.783 125.095 122.783 124.272V40.6702C122.784 38.8225 121.638 37.1672 119.908 36.5187L90.3119 25.4203Z" fill="#D2DEEE"/>
<path fill-rule="evenodd" clip-rule="evenodd" d="M53.2407 72.4895C50.7943 72.4895 48.8111 74.4727 48.8111 76.9191V124.272C48.8111 125.095 48.1442 125.762 47.3215 125.762C46.4989 125.762 45.832 125.095 45.832 124.272V76.9191C45.832 72.8275 49.149 69.5105 53.2407 69.5105H88.7554C92.8471 69.5105 96.164 72.8275 96.164 76.9191V124.272C96.164 125.095 95.4972 125.762 94.6745 125.762C93.8519 125.762 93.185 125.095 93.185 124.272V76.9191C93.185 74.4727 91.2018 72.4895 88.7554 72.4895H53.2407Z" fill="#D2DEEE"/>
<path fill-rule="evenodd" clip-rule="evenodd" d="M60.6289 104.74C60.6289 103.917 61.2958 103.25 62.1184 103.25H79.8758C80.6985 103.25 81.3653 103.917 81.3653 104.74C81.3653 105.563 80.6985 106.23 79.8758 106.23H62.1184C61.2958 106.23 60.6289 105.563 60.6289 104.74Z" fill="#D2DEEE"/>
<path fill-rule="evenodd" clip-rule="evenodd" d="M60.6289 88.7583C60.6289 87.9357 61.2958 87.2688 62.1184 87.2688H79.8758C80.6985 87.2688 81.3653 87.9357 81.3653 88.7583C81.3653 89.5809 80.6985 90.2478 79.8758 90.2478H62.1184C61.2958 90.2478 60.6289 89.5809 60.6289 88.7583Z" fill="#D2DEEE"/>
<path fill-rule="evenodd" clip-rule="evenodd" d="M10.3203 124.272C10.3203 123.45 10.9872 122.783 11.8098 122.783H130.192C131.015 122.783 131.682 123.45 131.682 124.272C131.682 125.095 131.015 125.762 130.192 125.762H11.8098C10.9872 125.762 10.3203 125.095 10.3203 124.272Z" fill="#D2DEEE"/>
</svg>
