<svg width="142" height="142" viewBox="0 0 142 142" fill="none" xmlns="http://www.w3.org/2000/svg">
<path fill-rule="evenodd" clip-rule="evenodd" d="M121.961 57.4077C117.872 53.3192 111.243 53.3192 107.155 57.4077L106.094 56.3471L107.155 57.4077C103.066 61.4963 103.066 68.1251 107.155 72.2137C111.243 76.3023 117.872 76.3023 121.961 72.2137C126.049 68.1251 126.049 61.4963 121.961 57.4077ZM124.081 55.2855C118.821 50.0263 110.293 50.0266 105.033 55.2864C99.7733 60.5465 99.7733 69.0749 105.033 74.335C110.294 79.5952 118.822 79.5952 124.082 74.335C129.342 69.0749 129.342 60.5465 124.082 55.2864C124.082 55.2861 124.081 55.2858 124.081 55.2855Z" fill="#D2DEEE"/>
<path fill-rule="evenodd" clip-rule="evenodd" d="M82.9704 36.0421C76.3586 29.4304 65.6389 29.4304 59.0271 36.0421C52.4154 42.6539 52.4154 53.3736 59.0271 59.9854C65.6389 66.5971 76.3587 66.5971 82.9704 59.9854C89.5818 53.3739 89.5821 42.6549 82.9714 36.0431C82.9711 36.0428 82.9707 36.0424 82.9704 36.0421ZM85.0917 33.9208C77.3084 26.1375 64.6891 26.1375 56.9058 33.9208L56.9058 33.9208C49.1225 41.7041 49.1225 54.3234 56.9058 62.1067C64.6892 69.89 77.3084 69.89 85.0917 62.1067C92.875 54.3233 92.875 41.7041 85.0917 33.9208Z" fill="#D2DEEE"/>
<path fill-rule="evenodd" clip-rule="evenodd" d="M34.8455 57.4077C30.757 53.3192 24.1281 53.3192 20.0396 57.4077C15.951 61.4963 15.951 68.1251 20.0396 72.2137C24.1281 76.3023 30.757 76.3023 34.8455 72.2137C38.9341 68.1251 38.9341 61.4963 34.8455 57.4077ZM36.9669 55.2864C31.7067 50.0263 23.1784 50.0263 17.9182 55.2864C12.6581 60.5465 12.6581 69.0749 17.9182 74.335C23.1784 79.5952 31.7067 79.5952 36.9669 74.335C42.227 69.0749 42.227 60.5465 36.9669 55.2864Z" fill="#D2DEEE"/>
<path fill-rule="evenodd" clip-rule="evenodd" d="M115.053 91.1406C115.053 90.3121 115.725 89.6406 116.553 89.6406H121.292C130.292 89.6406 137.584 96.9329 137.584 105.932V112.417C137.584 113.245 136.913 113.917 136.084 113.917C135.256 113.917 134.584 113.245 134.584 112.417V105.932C134.584 98.5897 128.635 92.6406 121.292 92.6406H116.553C115.725 92.6406 115.053 91.969 115.053 91.1406Z" fill="#D2DEEE"/>
<path fill-rule="evenodd" clip-rule="evenodd" d="M20.7082 92.6406C13.3657 92.6406 7.4165 98.5897 7.4165 105.932V112.417C7.4165 113.245 6.74493 113.917 5.9165 113.917C5.08808 113.917 4.4165 113.245 4.4165 112.417V105.932C4.4165 96.9329 11.7088 89.6406 20.7082 89.6406H25.4474C26.2759 89.6406 26.9474 90.3121 26.9474 91.1406C26.9474 91.969 26.2759 92.6406 25.4474 92.6406H20.7082Z" fill="#D2DEEE"/>
<path fill-rule="evenodd" clip-rule="evenodd" d="M37.9058 102.944C37.9058 90.6783 47.8488 80.7354 60.1141 80.7354H81.8815C94.1469 80.7354 104.09 90.6783 104.09 102.944V112.416C104.09 113.245 103.418 113.916 102.59 113.916C101.761 113.916 101.09 113.245 101.09 112.416V102.944C101.09 92.3352 92.49 83.7354 81.8815 83.7354H60.1141C49.5056 83.7354 40.9058 92.3352 40.9058 102.944V112.416C40.9058 113.245 40.2342 113.916 39.4058 113.916C38.5773 113.916 37.9058 113.245 37.9058 112.416V102.944Z" fill="#D2DEEE"/>
</svg>
